<svg xmlns="http://www.w3.org/2000/svg" version="1.1" xmlns:xlink="http://www.w3.org/1999/xlink" xmlns:svgjs="http://svgjs.dev/svgjs" width="2000" height="398" viewBox="0 0 2000 398"><g transform="matrix(1,0,0,1,0.3398876404492057,1.3243217614548541)"><svg viewBox="0 0 356 71" data-background-color="#dedede" preserveAspectRatio="xMidYMid meet" height="398" width="2000" xmlns="http://www.w3.org/2000/svg" xmlns:xlink="http://www.w3.org/1999/xlink"><g id="tight-bounds" transform="matrix(1,0,0,1,-0.06049999999996203,-0.23624835443038705)"><svg viewBox="0 0 356.12052 71.47249670886076" height="71.47249670886076" width="356.12052"><g><svg viewBox="0 0 356.12052 71.47249670886076" height="71.47249670886076" width="356.12052"><g><svg viewBox="0 0 356.12052 71.47249670886076" height="71.47249670886076" width="356.12052"><g><path d="M0 71.472v-71.472h356.121v71.472z" fill="#000000" stroke="transparent" stroke-width="0" rx="0%" data-fill-palette-color="tertiary"></path><path d="M3.283 68.189v-64.906h349.554v64.906z" fill="#ffffff" stroke="transparent" stroke-width="0" rx="0%" data-fill-palette-color="quaternary"></path><path d="M9.85 61.623v-51.773h336.421v51.773z" fill="#000000" stroke="transparent" stroke-width="0" data-fill-palette-color="tertiary"></path></g><g transform="matrix(1,0,0,1,19.69974,19.69974)" id="textblocktransform"><svg viewBox="0 0 316.72104 32.07301670886076" height="32.07301670886076" width="316.72104" id="textblock"><g><svg viewBox="0 0 316.72104 32.07301670886076" height="32.07301670886076" width="316.72104"><g transform="matrix(1,0,0,1,0,0)"><svg width="316.72104" viewBox="0 -50 493.7300109863281 43.75" height="32.07301670886076" data-palette-color="#dedede"><path d="M12.5-6.25L0-6.25 0-50 12.5-50 12.5-43.75 18.75-43.75 18.75-37.5 25-37.5 25-43.75 31.25-43.75 31.25-50 43.75-50 43.75-6.25 31.25-6.25 31.25-31.25 25-31.25 25-18.75 18.75-18.75 18.75-31.25 12.5-31.25 12.5-6.25ZM62.5-6.25L50-6.25 50-37.5 56.25-37.5 56.25-43.75 62.5-43.75 62.5-50 81.25-50 81.25-43.75 87.5-43.75 87.5-37.5 93.75-37.5 93.75-6.25 81.25-6.25 81.25-18.75 62.5-18.75 62.5-6.25ZM62.5-37.5L62.5-25 81.25-25 81.25-37.5 75-37.5 75-43.75 68.75-43.75 68.75-37.5 62.5-37.5ZM131.25-6.25L118.75-6.25 118.75-43.75 106.25-43.75 106.25-50 143.75-50 143.75-43.75 131.25-43.75 131.25-6.25ZM181.24-6.25L168.74-6.25 168.74-43.75 156.24-43.75 156.24-50 193.74-50 193.74-43.75 181.24-43.75 181.24-6.25ZM293.74-6.25L249.99-6.25 249.99-18.75 256.24-18.75 256.24-25 262.49-25 262.49-31.25 268.74-31.25 268.74-37.5 274.99-37.5 274.99-43.75 249.99-43.75 249.99-50 293.74-50 293.74-37.5 287.49-37.5 287.49-31.25 281.24-31.25 281.24-25 274.99-25 274.99-18.75 268.74-18.75 268.74-12.5 293.74-12.5 293.74-6.25ZM312.49-6.25L299.99-6.25 299.99-50 312.49-50 312.49-31.25 331.24-31.25 331.24-50 343.74-50 343.74-6.25 331.24-6.25 331.24-25 312.49-25 312.49-6.25ZM362.48-6.25L349.98-6.25 349.98-37.5 356.23-37.5 356.23-43.75 362.48-43.75 362.48-50 381.23-50 381.23-43.75 387.48-43.75 387.48-37.5 393.73-37.5 393.73-6.25 381.23-6.25 381.23-18.75 362.48-18.75 362.48-6.25ZM362.48-37.5L362.48-25 381.23-25 381.23-37.5 374.98-37.5 374.98-43.75 368.73-43.75 368.73-37.5 362.48-37.5ZM412.48-6.25L399.98-6.25 399.98-50 412.48-50 412.48-43.75 418.73-43.75 418.73-37.5 424.98-37.5 424.98-31.25 431.23-31.25 431.23-50 443.73-50 443.73-6.25 431.23-6.25 431.23-18.75 424.98-18.75 424.98-25 418.73-25 418.73-31.25 412.48-31.25 412.48-6.25ZM493.73-6.25L462.48-6.25 462.48-12.5 456.23-12.5 456.23-18.75 449.98-18.75 449.98-37.5 456.23-37.5 456.23-43.75 462.48-43.75 462.48-50 493.73-50 493.73-43.75 468.73-43.75 468.73-37.5 462.48-37.5 462.48-18.75 468.73-18.75 468.73-12.5 481.23-12.5 481.23-25 474.98-25 474.98-31.25 493.73-31.25 493.73-6.25Z" opacity="1" transform="matrix(1,0,0,1,0,0)" fill="#ffffff" class="undefined-text-0" data-fill-palette-color="quaternary" id="text-0"></path></svg></g></svg></g></svg></g></svg></g><g></g></svg></g><defs></defs></svg><rect width="356.12052" height="71.47249670886076" fill="none" stroke="none" visibility="hidden"></rect></g></svg></g></svg>